<svg viewBox="0 0 1024 1024" version="1.1" xmlns="http://www.w3.org/2000/svg" p-id="4818" width="15" height="15"><path d="M983.8 312.7C958 251.7 921 197 874 150c-47-47-101.7-84-162.7-109.8C648.2 13.5 581.1 0 512 0S375.8 13.5 312.7 40.2C251.7 66 197 103 150 150c-47 47-84 101.7-109.8 162.7C13.5 375.8 0 442.9 0 512s13.5 136.2 40.2 199.3C66 772.3 103 827 150 874c47 47 101.8 83.9 162.7 109.7 63.1 26.7 130.2 40.2 199.3 40.2s136.2-13.5 199.3-40.2C772.3 958 827 921 874 874c47-47 83.9-101.8 109.7-162.7 26.7-63.1 40.2-130.2 40.2-199.3s-13.4-136.2-40.1-199.3zM99.2 337.6c22.6-53.3 54.9-101.3 96-142.4 41.2-41.2 89.1-73.5 142.4-96C392.8 75.8 451.5 64 512 64c14.1 0 28 0.6 41.8 1.9-5.1 8.8-9 18.1-11.5 27.7-7 26.4-3.2 52.6 10.9 76 17.2 35.1 23 63.7 15.3 76.8-7.5 12.8-32.8 15.9-47.1 16.6l-1.6 0.1c-60.1 5.9-99.7 26.3-117.7 60.8-14.1 27-12.6 60.7 3.9 90.1 17.1 30.3 50 97.7 54.1 111.8 1.5 5.2 2.1 12.2-3.1 16.4-7 5.6-23.2 6.2-43.5-5-4.3-2.4-10.5-6.9-16.9-11.6-19.1-14-45.3-33.2-77.8-37.9-39.8-5.7-77.7 11.3-112.6 50.5-12.9 14.5-26.5 21.7-45.5 24-24.1 3-56.2-2.6-95.5-16.7-0.8-11-1.2-22.2-1.2-33.5 0-60.5 11.8-119.2 35.2-174.4z m729.6 491.2c-41.2 41.2-89.1 73.5-142.4 96C631.2 948.2 572.5 960 512 960h-2.4c-12.5-31.4-21.1-72.3 1.1-100.6 23.1-29.6 77.2-42.2 137.8-32.3 54.7 9 94.6 4.5 125.5-14.1 28.5-17.2 43.3-43.1 56.3-65.9 10.6-18.6 20.7-36.2 37.4-48.5 14.7-10.8 34.6-17.4 60.3-20-1 2.6-2.1 5.2-3.2 7.8-22.6 53.3-54.9 101.2-96 142.4z m119.7-215.4c-116.8 2.1-149.7 59.7-173.8 102-10.9 19.1-19.5 34.2-33.8 42.8-16.9 10.2-43.7 12.1-82.1 5.8-39.1-6.4-77.4-5.5-110.7 2.8-37.5 9.3-67.9 27.7-87.9 53.2-16.8 21.5-25.9 47.1-27.2 76.2-0.8 18.2 1.6 37.7 7.2 58.1-35.2-5.7-69.6-15.5-102.7-29.5-53.3-22.6-101.3-54.9-142.4-96-41.2-41.2-73.5-89.1-96-142.4-9.7-22.8-17.3-46.3-23-70.2 26.3 7.3 49.9 10.9 71.3 10.9 7.3 0 14.3-0.4 21.1-1.2 34.3-4.2 62.3-19 85.5-45 41.2-46.4 65.4-32.3 104.6-3.6 8.2 6 15.9 11.7 23.9 16.1 41.2 22.8 85 22.4 114.4-1 24.5-19.6 34-51.8 24.7-84.1-6.9-24-45.4-99.8-59.8-125.5-4.4-7.7-7.7-20-3-29.2 7-13.4 31.2-23.1 66.4-26.6 48.1-2.5 81.2-18.7 98.4-48.1 19.9-33.9 15.2-80.6-13.8-138.9l-0.7-1.4-0.8-1.3c-5.4-8.6-6.7-17.5-4.2-27.2 3-11.3 11.2-22.8 22.1-31.2 20.4 5.4 40.5 12.2 60.1 20.5 53.3 22.6 101.3 54.9 142.4 96 41.2 41.2 73.5 89.1 96 142.4 23.5 55 35.3 113.7 35.3 174.2 0 34.5-3.9 68.4-11.5 101.4z" fill="" p-id="4819"></path></svg>