<svg viewBox="0 0 1024 1024" version="1.1" xmlns="http://www.w3.org/2000/svg" p-id="12869" width="18" height="18"><path d="M503.640816 950.857143c-87.771429 0-163.004082-58.514286-185.991836-140.016327H229.877551c-60.604082 0-108.669388-48.065306-108.669388-106.579592V668.734694c0-54.334694 39.706122-98.220408 91.951021-106.579592v-200.620408c0-160.914286 121.208163-282.122449 280.032653-282.122449h4.179592c160.914286 2.089796 292.571429 131.657143 292.571428 290.481633V564.244898c54.334694 6.269388 94.040816 52.244898 94.040816 106.579592v33.436734c0 58.514286-48.065306 106.579592-108.669387 106.579592H689.632653c-22.987755 81.502041-98.220408 140.016327-185.991837 140.016327z m-121.208163-142.106123c18.808163 45.97551 66.873469 79.412245 119.118367 79.412245s100.310204-31.346939 119.118368-79.412245H382.432653z m110.759184-664.555102c-123.297959 0-217.338776 94.040816-217.338776 219.428572v219.428571c0 22.987755-20.897959 41.795918-45.97551 41.795919-25.077551 0-45.97551 18.808163-45.97551 43.885714v33.436735c0 20.897959 14.628571 37.616327 33.436735 41.795918h572.604081c18.808163-6.269388 31.346939-22.987755 31.346939-41.795918V668.734694c0-25.077551-20.897959-43.885714-45.97551-43.885714h-10.44898c-18.808163 0-39.706122-12.538776-39.706122-41.795919V371.983673c0-123.297959-102.4-225.697959-229.877551-227.787755h-2.089796z" p-id="12870"></path></svg>