<?xml version="1.0" encoding="UTF-8"?>
<svg width="21px" height="21px" viewBox="0 0 21 21" version="1.1" xmlns="http://www.w3.org/2000/svg" xmlns:xlink="http://www.w3.org/1999/xlink">
    <title>关闭显示@1x</title>
    <g id="页面-1" stroke="none" stroke-width="1"  fill-rule="evenodd">
        <g id="登录" transform="translate(-323.000000, -375.000000)" fill-rule="nonzero">
            <g id="关闭显示" transform="translate(323.500000, 375.090570)">
                <rect id="矩形"  opacity="0" x="8.85085785e-06" y="1.24646408e-06" width="20" height="20"></rect>
                <path d="M18.3921221,9.99612928 L17.3235254,8.72243509 C17.8845167,8.04691175 18.3521589,7.28210037 18.7049258,6.43762947 C18.8312027,6.13527414 18.6887003,5.78811273 18.386345,5.66183582 C18.0828266,5.53517758 17.7368282,5.67844268 17.6105513,5.98041666 C16.3582115,8.97859247 13.44307,10.8410387 10.0027629,10.8410387 C6.53425662,10.8410387 3.6179711,8.97434066 2.39152351,5.96960601 C2.26795404,5.66608764 1.92233699,5.5201151 1.6184373,5.64446631 C1.31491894,5.76803578 1.16932772,6.11441548 1.2932976,6.41757159 C1.65378644,7.30080452 2.15288818,8.10086973 2.75887627,8.80474483 L1.75901404,9.99612928 C1.54855887,10.2467574 1.58137218,10.6209359 1.83238163,10.8317915 C1.94321474,10.9248547 2.07875794,10.9704234 2.21313808,10.9704234 C2.3822763,10.9704234 2.55065188,10.8982189 2.66804385,10.7584239 L3.59444317,9.65457338 C4.23701972,10.2248691 4.96444187,10.7020826 5.75308628,11.0775958 L5.18696607,12.6328438 C5.07458857,12.940614 5.23329747,13.2808162 5.54146805,13.3928124 C5.6082768,13.4171411 5.67662993,13.4287335 5.74420132,13.4287335 C5.98632581,13.4287335 6.21376916,13.2792909 6.30143657,13.0383294 L6.854706,11.5184496 C7.66439974,11.7870764 8.52118756,11.9550516 9.40964469,12.0064547 L9.40964469,13.8067825 C9.40964469,14.1342483 9.67531622,14.3999198 10.002782,14.3999198 C10.3302478,14.3999198 10.5959194,14.1342483 10.5959194,13.8067825 L10.5959194,12.0071029 C11.5381629,11.9545177 12.4400428,11.7763039 13.2850475,11.486132 L13.8501,13.0383294 C13.9377674,13.2792909 14.1652108,13.4287335 14.4073352,13.4287335 C14.4749066,13.4287335 14.5432598,13.4171411 14.6100685,13.3928123 C14.91822,13.2808353 15.0769289,12.940614 14.9645705,12.6328438 L14.3809854,11.0297009 C15.1572748,10.6475717 15.8688718,10.1630176 16.4985023,9.58482839 L17.4831114,10.7584239 C17.6005033,10.8982189 17.7684785,10.9704234 17.9380171,10.9704234 C18.0723973,10.9704234 18.2075591,10.9248547 18.3187736,10.8317915 C18.569764,10.6209359 18.6025773,10.2471197 18.3921221,9.99612928 Z" id="路径" ></path>
            </g>
        </g>
    </g>
</svg>