<?xml version="1.0" encoding="UTF-8"?>
<svg width="21px" height="21px" viewBox="0 0 21 21" version="1.1" xmlns="http://www.w3.org/2000/svg" xmlns:xlink="http://www.w3.org/1999/xlink">
    <title>显示@1x</title>
    <g id="页面-1" stroke="none" stroke-width="1"  fill-rule="evenodd">
        <g id="登录-2" transform="translate(-323.000000, -375.000000)" fill-rule="nonzero">
            <g id="显示" transform="translate(323.500000, 375.090570)">
                <rect id="矩形" opacity="0" x="0" y="0.00234375" width="20" height="20"></rect>
                <path d="M18.5076666,9.31778517 C15.9471637,6.12643363 13.1112748,4.53271096 10,4.53271096 C6.88872521,4.53271096 4.05283633,6.12838673 1.49233335,9.31778517 C1.17202634,9.71816893 1.17202634,10.2884717 1.49233335,10.6869023 C4.05283633,13.8782539 6.88872521,15.4719765 10,15.4719765 C13.1112748,15.4719765 15.9471637,13.8763008 18.5076666,10.6869023 C18.8279737,10.2884717 18.8279737,9.71816893 18.5076666,9.31778517 Z M10,14.0618445 C7.44926248,14.0618445 5.0957872,12.7376484 2.90051234,10.0033203 C5.0957872,7.26899217 7.44926248,5.94479612 10,5.94479612 C12.5507375,5.94479612 14.9042128,7.26899217 17.0994877,10.0033203 C14.9042128,12.7376484 12.5507375,14.0618445 10,14.0618445 Z M10,11.5618873 C10.8613134,11.5618873 11.558567,10.8646337 11.558567,10.0033203 C11.558567,9.14200694 10.8613134,8.44475327 10,8.44475327 C9.13868664,8.44475327 8.44142889,9.14200694 8.44142889,10.0033203 C8.43947988,10.8646337 9.13868664,11.5618873 10,11.5618873 L10,11.5618873 Z M10,12.9681132 C8.36330931,12.9681132 7.03520708,11.640011 7.03520708,10.0033203 C7.03520708,8.3666296 8.36330931,7.03852737 10,7.03852737 C11.6366907,7.03852737 12.9647929,8.3666296 12.9647929,10.0033203 C12.9647929,11.640011 11.6366907,12.9681132 10,12.9681132 L10,12.9681132 Z" id="形状" ></path>
            </g>
        </g>
    </g>
</svg>